<svg xmlns="http://www.w3.org/2000/svg" height="1000" width="1000"><path fill="#e4e4e4" d="M0 0h1000v1000H0z"/><g font-family="Raleway" letter-spacing="0" word-spacing="0"><g style="line-height:100%;text-align:start" font-weight="900" font-size="184.621" text-anchor="middle" fill="#41b3d3"><path d="M380.196 410.942q0-5.765 2.129-11.353 2.217-5.589 6.386-10.024 4.17-4.435 10.112-7.185 5.944-2.75 13.572-2.75 9.136 0 15.79 3.815 6.74 3.725 10.022 9.934l-13.216 9.403q-.887-2.306-2.395-3.814-1.42-1.508-3.194-2.395t-3.725-1.242q-1.863-.355-3.637-.355-3.725 0-6.475 1.508-2.661 1.42-4.435 3.814-1.686 2.306-2.573 5.322-.798 2.927-.798 5.855 0 3.282.976 6.298.975 3.015 2.838 5.322 1.863 2.306 4.524 3.725 2.75 1.33 6.12 1.33 1.775 0 3.637-.354 1.863-.444 3.548-1.33 1.775-.976 3.105-2.396 1.42-1.507 2.218-3.636l14.103 8.426q-1.419 3.46-4.346 6.21-2.839 2.75-6.564 4.612-3.637 1.863-7.895 2.839-4.169.975-8.16.975-7.008 0-12.862-2.75-5.766-2.838-10.024-7.45-4.169-4.613-6.475-10.467-2.306-5.855-2.306-11.887zM472.157 443.496q-7.185 0-13.04-2.75-5.854-2.75-10.023-7.184-4.169-4.524-6.475-10.29-2.306-5.766-2.306-11.886 0-6.21 2.395-11.975 2.395-5.766 6.652-10.112 4.347-4.435 10.201-7.008 5.943-2.66 12.95-2.66 7.186 0 13.04 2.75 5.855 2.749 10.024 7.273 4.169 4.524 6.386 10.29 2.306 5.765 2.306 11.797 0 6.209-2.395 11.975-2.395 5.677-6.652 10.112-4.258 4.346-10.201 7.007-5.854 2.661-12.862 2.661zm-14.281-31.933q0 3.194.887 6.21.887 2.927 2.661 5.233 1.774 2.306 4.435 3.726 2.75 1.419 6.475 1.419 3.726 0 6.476-1.42 2.75-1.507 4.435-3.814 1.774-2.395 2.572-5.41.887-3.016.887-6.121 0-3.193-.887-6.12-.887-3.016-2.75-5.234-1.774-2.306-4.523-3.637-2.661-1.419-6.298-1.419-3.726 0-6.476 1.42-2.66 1.418-4.435 3.813-1.774 2.307-2.66 5.323-.8 2.927-.8 6.031zM511.512 442.964v-62.979h24.216q7.806 0 13.749 2.484 5.943 2.484 9.934 6.741 3.992 4.258 6.032 10.024 2.04 5.677 2.04 12.152 0 7.185-2.306 13.04-2.217 5.765-6.386 9.934-4.17 4.08-10.024 6.387-5.854 2.217-13.04 2.217h-24.215zm38.408-31.578q0-3.637-.975-6.653-.976-3.016-2.839-5.144-1.774-2.13-4.435-3.282-2.661-1.242-5.943-1.242h-6.919v32.82h6.919q3.37 0 6.032-1.242 2.66-1.242 4.435-3.46 1.862-2.217 2.75-5.233.975-3.016.975-6.564zM619.804 427.885v15.08h-44.883v-62.98h44.085v15.08h-26.788v8.87h22.885v14.015h-22.885v9.935h27.586zM467.444 483.767h-18.095v47.9h-17.297v-47.9h-18.184v-15.08h53.576v15.08zM529.363 468.688v62.979h-17.297v-24.66h-21.112v24.66h-17.297v-62.98h17.297v23.241h21.112v-23.24h17.297zM585.068 516.587v15.08h-44.884v-62.98h44.086v15.08H557.48v8.87h22.886v14.016H557.48v9.934h27.587zM421.893 557.39h15.878l5.5 19.427 5.588-19.426h15.878l-10.379 30.07 4.524 13.128 13.572-43.198h18.805l-24.66 62.979h-14.37l-8.959-22.53-8.87 22.53h-14.37l-24.659-62.98h18.716l13.66 43.199 4.347-13.128-10.2-30.07zM540.457 605.29v15.08h-44.884v-62.98h44.085v15.08H512.87v8.87h22.886v14.015H512.87v9.935h27.587zM601.99 604.226q0 4.257-1.774 7.362-1.774 3.016-4.879 4.967-3.104 1.952-7.273 2.928-4.08.887-8.693.887h-30.957v-62.98h36.545q3.282 0 5.943 1.42 2.661 1.42 4.524 3.725 1.863 2.218 2.839 5.145 1.064 2.839 1.064 5.855 0 4.435-2.306 8.515-2.218 3.992-6.742 6.032 5.411 1.596 8.516 5.588 3.193 3.903 3.193 10.556zm-17.563-3.548q0-2.307-1.242-3.815-1.242-1.596-3.193-1.596H565.71v10.555h13.66q2.129 0 3.548-1.33 1.508-1.33 1.508-3.814zm-18.716-28.563v9.669h11.797q1.774 0 3.193-.976 1.508-.976 1.508-3.903 0-2.572-1.241-3.637-1.242-1.153-2.928-1.153h-12.33z" style="line-height:100%;-inkscape-font-specification:'Raleway Heavy';text-align:center"/></g><g style="line-height:125%;-inkscape-font-specification:'Raleway Medium';text-align:end"><path style="-inkscape-font-specification:Blackout;text-align:end" d="M367.148 366.654L259.612 496.415l107.536 136.93h-70.974L188.637 497.133l107.537-130.478h70.974z" font-weight="400" font-family="Blackout" stroke="none" font-size="746.071" text-anchor="end" fill="#444" stroke-width="12.686" stroke-linecap="round" stroke-linejoin="round"/></g><g style="line-height:125%;-inkscape-font-specification:'Raleway Medium';text-align:end"><path d="M632.852 366.654l107.537 136.93-107.537 129.762h70.974l107.537-130.479-107.537-136.213h-70.974zM747 519.793a9.587 9.587 0 012.408.21l-.328 7.298c-1.218-.291-2.443-.222-3.674.207-1.25.412-2.28 1.097-3.086 2.056-.6.715-1.005 1.49-1.216 2.323a5.977 5.977 0 00-.09 2.533c.15.857.479 1.71.988 2.555.489.828 1.15 1.593 1.988 2.296.858.72 1.739 1.25 2.639 1.588.9.338 1.785.506 2.656.506a6.54 6.54 0 002.5-.615c.78-.39 1.489-.963 2.123-1.719 1.458-1.736 2.028-3.868 1.713-6.396l-3.164 3.77-4.289-3.602 7.51-8.946 11.58 9.723-4.14 4.932-1.807-1.518c.003 2.65-.844 4.986-2.541 7.008a14.706 14.706 0 01-4.131 3.426 12.85 12.85 0 01-5.034 1.517c-1.765.154-3.584-.066-5.453-.66-1.869-.594-3.692-1.637-5.468-3.129-1.532-1.286-2.71-2.762-3.538-4.431-.847-1.687-1.331-3.434-1.45-5.24-.14-1.824.08-3.64.66-5.452.576-1.848 1.525-3.56 2.845-5.133a15.117 15.117 0 012.703-2.535 11.836 11.836 0 013.033-1.683 11.787 11.787 0 013.25-.823c.272-.033.543-.056.813-.066zm-19.313 23.531c1.848-.085 3.65.174 5.407.778a14.204 14.204 0 014.742 2.625 13.943 13.943 0 013.441 4.298 14.888 14.888 0 011.565 5.23c.178 1.821-.001 3.673-.537 5.556-.52 1.862-1.456 3.599-2.81 5.212-1.39 1.655-2.967 2.891-4.731 3.707-1.765.817-3.562 1.275-5.389 1.377a15.018 15.018 0 01-5.432-.746 14.307 14.307 0 01-4.773-2.65 13.942 13.942 0 01-3.441-4.299 14.273 14.273 0 01-1.563-5.23 14.588 14.588 0 01.537-5.555c.536-1.883 1.481-3.63 2.836-5.244 1.389-1.654 2.966-2.889 4.73-3.705 1.765-.817 3.571-1.268 5.418-1.354zm-.04 7.328a5.616 5.616 0 00-2.569.508c-.841.338-1.613.926-2.316 1.764-.72.858-1.182 1.74-1.387 2.648a5.932 5.932 0 00.031 2.639 7.241 7.241 0 001.067 2.46c.52.75 1.136 1.426 1.851 2.026a9.876 9.876 0 002.403 1.494c.845.362 1.704.56 2.578.598a6.12 6.12 0 002.572-.451c.858-.359 1.647-.967 2.367-1.824.72-.858 1.184-1.741 1.389-2.649.184-.924.174-1.805-.031-2.638a7.114 7.114 0 00-1.123-2.457 9.732 9.732 0 00-1.858-2.08 9.467 9.467 0 00-2.371-1.47c-.866-.378-1.733-.568-2.604-.568zm-28.07 19.377l16.54 13.889 8.283-9.865 5.207 4.373-13.296 15.838-21.75-18.26 5.015-5.975zm-7.34 12.35c.87 0 1.736.17 2.599.512.86.303 1.636.747 2.33 1.33 1.021.857 1.778 1.946 2.271 3.265.49 1.282.534 2.643.13 4.078 1.413-.937 2.88-1.379 4.4-1.322 1.516.02 3.038.673 4.57 1.96.98.822 1.658 1.737 2.03 2.745.35.992.451 2.035.3 3.127-.15 1.092-.516 2.211-1.097 3.36a18.43 18.43 0 01-2.215 3.26l-8.977 10.69-21.75-18.259 10.596-12.623c.634-.756 1.372-1.302 2.213-1.64a6.568 6.568 0 012.6-.483zm-.112 8.1a1.302 1.302 0 00-.375.005c-.506.063-.92.29-1.246.678l-3.576 4.258 3.34 2.803 3.42-4.075c.342-.408.54-.869.59-1.384.066-.536-.237-1.087-.91-1.653-.445-.373-.86-.584-1.243-.632zm8.418 6.082c-.608-.023-1.101.19-1.479.64l-4.14 4.932 3.646 3.06 3.96-4.716c.41-.49.602-1.028.57-1.612-.015-.604-.31-1.147-.881-1.627-.531-.446-1.089-.672-1.676-.677z" style="-inkscape-font-specification:Blackout;text-align:start" font-weight="400" font-family="Blackout" text-anchor="start" stroke="none" font-size="746.071" fill="#444" stroke-width="12.686" stroke-linecap="round" stroke-linejoin="round"/></g></g><text y="936.22" x="133.858" style="line-height:125%;text-align:start" font-weight="400" font-size="40" font-family="sans-serif" letter-spacing="0" word-spacing="0" transform="translate(0 -52.362)"/></svg>