<?xml version="1.0" encoding="UTF-8" standalone="no"?>
<svg
   xmlns:dc="http://purl.org/dc/elements/1.1/"
   xmlns:cc="http://creativecommons.org/ns#"
   xmlns:rdf="http://www.w3.org/1999/02/22-rdf-syntax-ns#"
   xmlns:svg="http://www.w3.org/2000/svg"
   xmlns="http://www.w3.org/2000/svg"
   xmlns:sodipodi="http://sodipodi.sourceforge.net/DTD/sodipodi-0.dtd"
   xmlns:inkscape="http://www.inkscape.org/namespaces/inkscape"
   version="1.1"
   id="svg2"
   viewBox="0 0 1000 1000"
   height="1000"
   width="1000"
   inkscape:version="0.91 r13725"
   sodipodi:docname="codetheweb-transparent.svg">
  <sodipodi:namedview
     pagecolor="#ffffff"
     bordercolor="#666666"
     borderopacity="1"
     objecttolerance="10"
     gridtolerance="10"
     guidetolerance="10"
     inkscape:pageopacity="0"
     inkscape:pageshadow="2"
     inkscape:window-width="1366"
     inkscape:window-height="672"
     id="namedview17"
     showgrid="false"
     inkscape:zoom="0.236"
     inkscape:cx="500"
     inkscape:cy="500"
     inkscape:window-x="0"
     inkscape:window-y="1"
     inkscape:window-maximized="1"
     inkscape:current-layer="svg2" />
  <defs>
      <linearGradient xmlns="http://www.w3.org/2000/svg" x1="100%" y1="100%" x2="38.1041974%" y2="38.1041974%" id="pink-theme">
            <stop stop-color="#FFC83E" offset="0%"/>
            <stop stop-color="#FA709A" offset="100%"/>
        </linearGradient>
    </defs>
  <metadata
     id="metadata7">
    <rdf:RDF>
      <cc:Work
         rdf:about="">
        <dc:format>image/svg+xml</dc:format>
        <dc:type
           rdf:resource="http://purl.org/dc/dcmitype/StillImage" />
        <dc:title />
      </cc:Work>
    </rdf:RDF>
  </metadata>
  <g
     transform="translate(0,-52.362161)"
     id="layer1">
    <g
       transform="matrix(0.48045801,0,0,0.48045801,191.67458,286.97533)"
       id="g4184">
      <g
         style="font-style:normal;font-weight:normal;font-size:184.62117004px;line-height:100%;font-family:sans-serif;text-align:start;letter-spacing:0px;word-spacing:0px;text-anchor:start;fill:#000000;fill-opacity:1;stroke:none;stroke-width:1px;stroke-linecap:butt;stroke-linejoin:miter;stroke-opacity:1"
         id="text4138">
        <path
           d="m 392.37834,367.00251 q 0,-12.00037 4.43091,-23.63151 4.61552,-11.63113 13.29272,-20.86219 8.67719,-9.23106 21.04681,-14.95431 12.36962,-5.72326 28.24704,-5.72326 19.01598,0 32.86257,7.93871 14.03121,7.75409 20.86219,20.67757 l -27.50855,19.56985 q -1.84621,-4.80015 -4.98477,-7.93871 -2.95394,-3.13856 -6.64637,-4.98478 -3.69242,-1.84621 -7.75408,-2.58469 -3.87705,-0.73849 -7.56947,-0.73849 -7.75409,0 -13.47735,3.13856 -5.53863,2.95394 -9.23106,7.93871 -3.5078,4.80015 -5.35401,11.07727 -1.66159,6.0925 -1.66159,12.185 0,6.83098 2.03083,13.1081 2.03083,6.27712 5.90788,11.07727 3.87704,4.80016 9.41568,7.75409 5.72325,2.76932 12.73886,2.76932 3.69242,0 7.56947,-0.73848 3.87704,-0.92311 7.38484,-2.76932 3.69243,-2.03083 6.46175,-4.98477 2.95393,-3.13856 4.61552,-7.56947 l 29.35477,17.53901 q -2.95394,7.20023 -9.04644,12.92348 -5.90787,5.72326 -13.66196,9.6003 -7.56947,3.87705 -16.43129,5.90788 -8.67719,2.03083 -16.98515,2.03083 -14.58507,0 -26.77006,-5.72325 -12.00038,-5.90788 -20.8622,-15.50818 -8.67719,-9.6003 -13.47734,-21.7853 -4.80015,-12.185 -4.80015,-24.73924 z"
           style="font-style:normal;font-variant:normal;font-weight:900;font-stretch:normal;line-height:100%;font-family:Raleway;-inkscape-font-specification:'Raleway Heavy';text-align:center;text-anchor:middle;fill:#41b3d3;fill-opacity:1"
           id="path4146" />
        <path
           d="m 583.78145,434.75848 q -14.95431,0 -27.13931,-5.72325 -12.185,-5.72326 -20.86219,-14.95432 -8.6772,-9.41568 -13.47735,-21.41605 -4.80015,-12.00038 -4.80015,-24.73924 0,-12.92348 4.98477,-24.92386 4.98478,-12.00037 13.84659,-21.04681 9.04644,-9.23106 21.23144,-14.58507 12.36961,-5.53864 26.95469,-5.53864 14.95431,0 27.13931,5.72326 12.185,5.72325 20.86219,15.13893 8.6772,9.41568 13.29273,21.41606 4.80015,12.00038 4.80015,24.55461 0,12.92349 -4.98478,24.92386 -4.98477,11.81576 -13.84658,21.04682 -8.86182,9.04643 -21.23144,14.58507 -12.185,5.53863 -26.77007,5.53863 z m -29.72401,-66.46362 q 0,6.64636 1.84622,12.92348 1.84621,6.0925 5.53863,10.89265 3.69242,4.80015 9.23106,7.75409 5.72326,2.95394 13.47734,2.95394 7.75409,0 13.47735,-2.95394 5.72326,-3.13856 9.23106,-7.93871 3.69242,-4.98477 5.35401,-11.26189 1.84621,-6.27712 1.84621,-12.73886 0,-6.64636 -1.84621,-12.73886 -1.84621,-6.27712 -5.72325,-10.89265 -3.69243,-4.80015 -9.41568,-7.56947 -5.53864,-2.95394 -13.10811,-2.95394 -7.75409,0 -13.47734,2.95394 -5.53864,2.95394 -9.23106,7.93871 -3.69242,4.80015 -5.53864,11.07727 -1.66159,6.0925 -1.66159,12.55424 z"
           style="font-style:normal;font-variant:normal;font-weight:900;font-stretch:normal;line-height:100%;font-family:Raleway;-inkscape-font-specification:'Raleway Heavy';text-align:center;text-anchor:middle;fill:#41b3d3;fill-opacity:1"
           id="path4148" />
        <path
           d="m 665.69267,433.65076 0,-131.08103 50.40158,0 q 16.24666,0 28.61628,5.16939 12.36962,5.16939 20.67757,14.03121 8.30795,8.86181 12.55424,20.86219 4.24629,11.81575 4.24629,25.2931 0,14.95432 -4.80015,27.13931 -4.61553,12.00038 -13.29273,20.67757 -8.67719,8.49258 -20.86219,13.29273 -12.185,4.61553 -27.13931,4.61553 l -50.40158,0 z m 79.94096,-65.72514 q 0,-7.56947 -2.03083,-13.84659 -2.03083,-6.27712 -5.90788,-10.70803 -3.69242,-4.4309 -9.23105,-6.83098 -5.53864,-2.58469 -12.36962,-2.58469 l -14.40045,0 0,68.30983 14.40045,0 q 7.0156,0 12.55424,-2.5847 5.53863,-2.58469 9.23106,-7.20022 3.87704,-4.61553 5.72325,-10.89265 2.03083,-6.27712 2.03083,-13.66197 z"
           style="font-style:normal;font-variant:normal;font-weight:900;font-stretch:normal;line-height:100%;font-family:Raleway;-inkscape-font-specification:'Raleway Heavy';text-align:center;text-anchor:middle;fill:#41b3d3;fill-opacity:1"
           id="path4150" />
        <path
           d="m 891.08629,402.26516 0,31.3856 -93.41831,0 0,-131.08103 91.75672,0 0,31.3856 -55.75559,0 0,18.46211 47.63226,0 0,29.17015 -47.63226,0 0,20.67757 57.41718,0 z"
           style="font-style:normal;font-variant:normal;font-weight:900;font-stretch:normal;line-height:100%;font-family:Raleway;-inkscape-font-specification:'Raleway Heavy';text-align:center;text-anchor:middle;fill:#41b3d3;fill-opacity:1"
           id="path4152" />
        <path
           d="m 573.97201,518.57648 -37.66272,0 0,99.69543 -36.00113,0 0,-99.69543 -37.84734,0 0,-31.3856 111.51119,0 0,31.3856 z"
           style="font-style:normal;font-variant:normal;font-weight:900;font-stretch:normal;line-height:100%;font-family:Raleway;-inkscape-font-specification:'Raleway Heavy';text-align:center;text-anchor:middle;fill:#41b3d3;fill-opacity:1"
           id="path4154" />
        <path
           d="m 702.84624,487.19088 0,131.08103 -36.00113,0 0,-51.32468 -43.93984,0 0,51.32468 -36.00113,0 0,-131.08103 36.00113,0 0,48.37075 43.93984,0 0,-48.37075 36.00113,0 z"
           style="font-style:normal;font-variant:normal;font-weight:900;font-stretch:normal;line-height:100%;font-family:Raleway;-inkscape-font-specification:'Raleway Heavy';text-align:center;text-anchor:middle;fill:#41b3d3;fill-opacity:1"
           id="path4157" />
        <path
           d="m 818.78834,586.88631 0,31.3856 -93.41831,0 0,-131.08103 91.75672,0 0,31.3856 -55.75559,0 0,18.46212 47.63226,0 0,29.17014 -47.63226,0 0,20.67757 57.41718,0 z"
           style="font-style:normal;font-variant:normal;font-weight:900;font-stretch:normal;line-height:100%;font-family:Raleway;-inkscape-font-specification:'Raleway Heavy';text-align:center;text-anchor:middle;fill:#41b3d3;fill-opacity:1"
           id="path4160" />
        <path
           d="m 479.16471,671.8121 33.04719,0 11.44651,40.43203 11.63114,-40.43203 33.04719,0 -21.60068,62.58657 9.41568,27.32394 28.24704,-89.91051 39.13969,0 -51.32469,131.08103 -29.90863,0 -18.64674,-46.89378 -18.46211,46.89378 -29.90863,0 -51.32469,-131.08103 38.95507,0 28.43166,89.91051 9.04644,-27.32394 -21.23144,-62.58657 z"
           style="font-style:normal;font-variant:normal;font-weight:900;font-stretch:normal;line-height:100%;font-family:Raleway;-inkscape-font-specification:'Raleway Heavy';text-align:center;text-anchor:middle;fill:#41b3d3;fill-opacity:1"
           id="path4162" />
        <path
           d="m 725.93687,771.50753 0,31.3856 -93.41831,0 0,-131.08103 91.75672,0 0,31.3856 -55.75559,0 0,18.46211 47.63226,0 0,29.17015 -47.63226,0 0,20.67757 57.41718,0 z"
           style="font-style:normal;font-variant:normal;font-weight:900;font-stretch:normal;line-height:100%;font-family:Raleway;-inkscape-font-specification:'Raleway Heavy';text-align:center;text-anchor:middle;fill:#41b3d3;fill-opacity:1"
           id="path4164" />
        <path
           d="m 854.00916,769.29207 q 0,8.86182 -3.69242,15.32356 -3.69243,6.27712 -10.15417,10.33879 -6.46174,4.06166 -15.13893,6.0925 -8.49258,1.84621 -18.09288,1.84621 l -64.43279,0 0,-131.08103 76.06393,0 q 6.83098,0 12.36961,2.95394 5.53864,2.95393 9.41568,7.75408 3.87705,4.61553 5.90788,10.70803 2.21546,5.90788 2.21546,12.185 0,9.23106 -4.80016,17.72363 -4.61552,8.30795 -14.0312,12.55424 11.26189,3.32318 17.72363,11.63114 6.64636,8.12333 6.64636,21.96991 z m -36.55499,-7.38484 q 0,-4.80015 -2.5847,-7.93871 -2.58469,-3.32318 -6.64636,-3.32318 l -29.72401,0 0,21.96992 28.43166,0 q 4.43091,0 7.38485,-2.76932 3.13856,-2.76932 3.13856,-7.93871 z m -38.95507,-59.44802 0,20.12371 24.55462,0 q 3.69242,0 6.64636,-2.03083 3.13856,-2.03084 3.13856,-8.12334 0,-5.35401 -2.5847,-7.56946 -2.58469,-2.40008 -6.0925,-2.40008 l -25.66234,0 z"
           style="font-style:normal;font-variant:normal;font-weight:900;font-stretch:normal;line-height:100%;font-family:Raleway;-inkscape-font-specification:'Raleway Heavy';text-align:center;text-anchor:middle;fill:#41b3d3;fill-opacity:1"
           id="path4166" />
      </g>
      <g
         id="text4174"
         style="font-style:normal;font-variant:normal;font-weight:500;font-stretch:normal;font-size:746.07092285px;line-height:125%;font-family:Raleway;-inkscape-font-specification:'Raleway Medium';text-align:end;letter-spacing:0px;word-spacing:0px;text-anchor:end;fill:#444444;fill-opacity:1;stroke:#444444;stroke-width:12.68645859;stroke-linecap:round;stroke-linejoin:round;stroke-miterlimit:4;stroke-dasharray:none;stroke-opacity:1">
        <path
           id="path4159"
           style="font-style:normal;font-variant:normal;font-weight:normal;font-stretch:normal;font-family:Blackout;-inkscape-font-specification:Blackout;text-align:end;text-anchor:end;fill:#444444;fill-opacity:1;stroke:none;stroke-width:20.81347275;stroke-linecap:round;stroke-linejoin:round;stroke-miterlimit:4;stroke-dasharray:none;stroke-opacity:1"
           d="m 365.22161,274.82381 -223.82127,270.07767 223.82127,284.99909 -147.72204,0 L -6.321707,546.39362 217.49957,274.82381 l 147.72204,0 0,0 z" />
      </g>
      <g
         id="text4194"
         style="font-style:normal;font-variant:normal;font-weight:500;font-stretch:normal;font-size:746.07092285px;line-height:125%;font-family:Raleway;-inkscape-font-specification:'Raleway Medium';text-align:end;letter-spacing:0px;word-spacing:0px;text-anchor:end;fill:#444444;fill-opacity:1;stroke:#444444;stroke-width:12.68645859;stroke-linecap:round;stroke-linejoin:round;stroke-miterlimit:4;stroke-dasharray:none;stroke-opacity:1">
        <path
           id="path4156"
           transform="matrix(2.0813473,0,0,2.0813473,-398.94138,-488.31149)"
           d="M 632.85156 366.6543 L 740.38867 503.58398 L 632.85156 633.3457 L 703.82617 633.3457 L 811.36328 502.86719 L 703.82617 366.6543 L 632.85156 366.6543 z M 747 519.79297 C 747.80996 519.76136 748.61242 519.83197 749.4082 520.00391 L 749.08008 527.30078 C 747.86221 527.00951 746.63696 527.07868 745.40625 527.50781 C 744.15511 527.91978 743.1262 528.60456 742.32031 529.56445 C 741.72019 530.27927 741.31485 531.0544 741.10352 531.88672 C 740.89221 532.71905 740.86319 533.56238 741.01367 534.41992 C 741.16422 535.27748 741.49292 536.12942 742.00195 536.97461 C 742.49061 537.80268 743.15289 538.56848 743.99023 539.27148 C 744.84801 539.99162 745.72875 540.52147 746.62891 540.85938 C 747.52906 541.19726 748.4145 541.36545 749.28516 541.36523 C 750.15254 541.32744 750.98484 541.12266 751.78516 540.75 C 752.56504 540.3602 753.27377 539.78691 753.9082 539.03125 C 755.36566 537.29527 755.93624 535.16254 755.62109 532.63477 L 752.45703 536.4043 L 748.16797 532.80273 L 755.67773 523.85742 L 767.25781 533.58008 L 763.11719 538.51172 L 761.31055 536.99414 C 761.31439 539.64367 760.46689 541.98004 758.76953 544.00195 C 757.58642 545.41116 756.20906 546.55258 754.63867 547.42773 C 753.04788 548.28575 751.37125 548.79129 749.60547 548.94531 C 747.83969 549.09932 746.02123 548.87925 744.15234 548.28516 C 742.28346 547.69104 740.46042 546.64799 738.68359 545.15625 C 737.15186 543.87028 735.97348 542.39384 735.14648 540.72461 C 734.29905 539.03824 733.81501 537.29098 733.69531 535.48438 C 733.55515 533.6606 733.77524 531.8441 734.35547 530.0332 C 734.93243 528.18474 735.88091 526.47299 737.20117 524.90039 C 738.0242 523.92007 738.92519 523.07525 739.9043 522.36523 C 740.86297 521.63808 741.87418 521.07723 742.9375 520.68164 C 743.99752 520.24849 745.08085 519.97483 746.1875 519.85938 C 746.45906 519.82622 746.73001 519.8035 747 519.79297 z M 727.6875 543.32422 C 729.53496 543.23878 731.33758 543.49763 733.09375 544.10156 C 734.86706 544.68507 736.44713 545.5606 737.83594 546.72656 C 739.26556 547.92682 740.41278 549.35944 741.27734 551.02539 C 742.12148 552.67418 742.64366 554.41822 742.8418 556.25586 C 743.01953 558.07637 742.84081 559.9278 742.30469 561.81055 C 741.78573 563.67287 740.84871 565.41 739.49414 567.02344 C 738.10526 568.67772 736.52846 569.91407 734.76367 570.73047 C 732.99889 571.54686 731.20205 572.00485 729.375 572.10742 C 727.52754 572.19286 725.71667 571.94484 723.94336 571.36133 C 722.17002 570.77782 720.57911 569.89404 719.16992 568.71094 C 717.74027 567.51068 716.59308 566.07806 715.72852 564.41211 C 714.86395 562.74617 714.34372 561.00212 714.16602 559.18164 C 713.98504 557.32357 714.16377 555.47215 714.70312 553.62695 C 715.23925 551.7442 716.18449 549.99625 717.53906 548.38281 C 718.92791 546.72853 720.50474 545.49413 722.26953 544.67773 C 724.03432 543.86132 725.84001 543.40964 727.6875 543.32422 z M 727.64648 550.65234 C 726.77253 550.615 725.91601 550.78423 725.07812 551.16016 C 724.23698 551.4985 723.46472 552.08647 722.76172 552.92383 C 722.04158 553.78161 721.57977 554.6648 721.375 555.57227 C 721.18737 556.4593 721.1978 557.33951 721.40625 558.21094 C 721.59433 559.06521 721.94976 559.88467 722.47266 560.67188 C 722.99232 561.42151 723.60939 562.09714 724.32422 562.69727 C 725.05945 563.31453 725.86068 563.81265 726.72656 564.19141 C 727.57198 564.55299 728.43077 564.75172 729.30469 564.78906 C 730.17864 564.8264 731.0358 564.67624 731.87695 564.33789 C 732.73528 563.97912 733.524 563.37145 734.24414 562.51367 C 734.96432 561.65589 735.42807 560.77271 735.63281 559.86523 C 735.81715 558.94063 735.80672 558.06041 735.60156 557.22656 C 735.39308 556.35513 735.01858 555.53631 734.47852 554.76953 C 733.95559 553.98233 733.33592 553.28958 732.62109 552.68945 C 731.88583 552.07217 731.09541 551.58229 730.25 551.2207 C 729.38415 550.84195 728.51714 550.6521 727.64648 550.65234 z M 699.57617 570.0293 L 716.11719 583.91797 L 724.40039 574.05273 L 729.60742 578.42578 L 716.31055 594.26367 L 694.56055 576.00391 L 699.57617 570.0293 z M 692.23633 582.37891 C 693.10698 582.37869 693.97339 582.54948 694.83594 582.89062 C 695.69528 583.19425 696.47166 583.63773 697.16602 584.2207 C 698.18721 585.07803 698.94385 586.16658 699.4375 587.48633 C 699.92789 588.76849 699.97114 590.12851 699.56641 591.56445 C 700.97995 590.62727 702.44762 590.18542 703.9668 590.24219 C 705.48271 590.26141 707.00535 590.91519 708.53711 592.20117 C 709.5174 593.02418 710.19453 593.93867 710.56641 594.94727 C 710.91791 595.93872 711.01802 596.9822 710.86719 598.07422 C 710.71639 599.16626 710.35076 600.28509 709.76953 601.43359 C 709.18504 602.54454 708.44632 603.63135 707.55469 604.69336 L 698.57812 615.38477 L 676.82812 597.125 L 687.42383 584.50195 C 688.05822 583.74629 688.79553 583.19968 689.63672 582.86133 C 690.47787 582.52296 691.34524 582.36199 692.23633 582.37891 z M 692.125 590.47852 C 691.99702 590.46247 691.87128 590.46434 691.75 590.48438 C 691.24446 590.54739 690.82969 590.77407 690.50391 591.16211 L 686.92773 595.41992 L 690.26758 598.22266 L 693.6875 594.14844 C 694.03042 593.73997 694.22766 593.27906 694.27734 592.76367 C 694.34419 592.22786 694.04114 591.67714 693.36719 591.11133 C 692.92296 590.73839 692.50895 590.52666 692.125 590.47852 z M 700.54297 596.56055 C 699.93532 596.53784 699.44168 596.75186 699.06445 597.20117 L 694.92383 602.13281 L 698.57031 605.19336 L 702.5293 600.47656 C 702.94083 599.9864 703.13161 599.4492 703.09961 598.86523 C 703.08488 598.26084 702.79075 597.71838 702.21875 597.23828 C 701.68775 596.79247 701.13022 596.5661 700.54297 596.56055 z "
           style="font-style:normal;font-variant:normal;font-weight:normal;font-stretch:normal;font-family:Blackout;-inkscape-font-specification:Blackout;text-align:start;text-anchor:start;fill:#444444;fill-opacity:1;stroke:none;stroke-width:20.81347275;stroke-linecap:round;stroke-linejoin:round;stroke-miterlimit:4;stroke-dasharray:none;stroke-opacity:1" />
      </g>
    </g>
    <text
       id="text4216"
       y="936.22046"
       x="133.85828"
       style="font-style:normal;font-weight:normal;font-size:40px;line-height:125%;font-family:sans-serif;text-align:start;letter-spacing:0px;word-spacing:0px;text-anchor:start;fill:#000000;fill-opacity:1;stroke:none;stroke-width:1px;stroke-linecap:butt;stroke-linejoin:miter;stroke-opacity:1"
       xml:space="preserve"><tspan
         y="936.22046"
         x="133.85828"
         id="tspan4218" /></text>
  </g>
</svg>
