<svg xmlns="http://www.w3.org/2000/svg" width="622.726" height="266.691"><path d="M444.214 0l107.537 136.93L444.214 266.69h70.975l107.537-130.478L515.189 0h-70.975zm114.149 153.139a9.587 9.587 0 012.408.21l-.328 7.297c-1.218-.29-2.443-.222-3.674.208-1.251.411-2.28 1.096-3.086 2.056-.6.715-1.005 1.49-1.217 2.322a5.976 5.976 0 00-.09 2.534c.151.857.48 1.71.989 2.554.488.828 1.15 1.594 1.988 2.297.858.72 1.739 1.25 2.639 1.588.9.338 1.785.506 2.656.506a6.54 6.54 0 002.5-.615c.78-.39 1.489-.963 2.123-1.72 1.457-1.735 2.028-3.868 1.713-6.396l-3.164 3.77-4.29-3.602 7.51-8.945 11.58 9.723-4.14 4.931-1.807-1.517c.004 2.65-.843 4.986-2.54 7.008a14.706 14.706 0 01-4.132 3.425 12.85 12.85 0 01-5.033 1.518c-1.766.154-3.584-.066-5.453-.66-1.869-.594-3.692-1.637-5.469-3.13-1.531-1.285-2.71-2.761-3.537-4.43-.847-1.687-1.331-3.434-1.45-5.24-.141-1.825.079-3.641.66-5.452.576-1.849 1.525-3.56 2.845-5.133a15.117 15.117 0 012.703-2.535 11.836 11.836 0 013.033-1.684 11.787 11.787 0 013.25-.822c.272-.033.543-.056.813-.066zm-19.313 23.53c1.848-.084 3.65.174 5.406.778a14.204 14.204 0 014.743 2.625 13.943 13.943 0 013.441 4.3 14.888 14.888 0 011.565 5.23c.177 1.82-.001 3.672-.538 5.554-.519 1.863-1.456 3.6-2.81 5.213-1.389 1.654-2.966 2.89-4.73 3.707-1.765.817-3.562 1.275-5.39 1.377a15.02 15.02 0 01-5.43-.746 14.307 14.307 0 01-4.774-2.65 13.942 13.942 0 01-3.442-4.3 14.273 14.273 0 01-1.562-5.23 14.593 14.593 0 01.537-5.554c.536-1.883 1.481-3.631 2.836-5.244 1.389-1.655 2.965-2.89 4.73-3.706 1.765-.816 3.57-1.268 5.418-1.353zm-.04 7.329a5.617 5.617 0 00-2.57.508c-.84.338-1.613.926-2.316 1.764-.72.857-1.181 1.74-1.386 2.648a5.933 5.933 0 00.03 2.639 7.241 7.241 0 001.067 2.46c.52.75 1.137 1.426 1.852 2.026a9.876 9.876 0 002.402 1.494c.846.362 1.704.56 2.578.598a6.121 6.121 0 002.573-.451c.858-.36 1.647-.967 2.367-1.825.72-.857 1.184-1.74 1.389-2.648.184-.925.173-1.805-.032-2.639a7.114 7.114 0 00-1.123-2.457 9.732 9.732 0 00-1.857-2.08 9.467 9.467 0 00-2.371-1.469c-.866-.378-1.733-.568-2.604-.568zm-28.071 19.377l16.54 13.889 8.284-9.866 5.207 4.373-13.297 15.838-21.75-18.26 5.016-5.974zm-7.34 12.35c.87 0 1.737.17 2.6.511.859.304 1.635.747 2.33 1.33 1.021.858 1.778 1.946 2.271 3.266.49 1.282.534 2.642.13 4.078 1.413-.937 2.88-1.379 4.4-1.322 1.515.02 3.038.673 4.57 1.959.98.823 1.657 1.737 2.03 2.746.35.991.45 2.035.3 3.127-.15 1.092-.516 2.21-1.098 3.36a18.43 18.43 0 01-2.215 3.26l-8.976 10.69-21.75-18.26 10.596-12.622c.634-.756 1.371-1.303 2.212-1.641a6.568 6.568 0 012.6-.482zm-.111 8.1a1.298 1.298 0 00-.375.005c-.506.063-.92.29-1.246.678l-3.577 4.258 3.34 2.803 3.42-4.075c.343-.408.54-.87.59-1.384.067-.536-.236-1.087-.91-1.653-.444-.373-.858-.584-1.242-.633zm8.418 6.081c-.608-.022-1.102.192-1.479.64l-4.14 4.933 3.646 3.06 3.96-4.717c.41-.49.601-1.027.57-1.611-.015-.604-.31-1.147-.881-1.627-.531-.446-1.089-.672-1.676-.678zM178.51 0L70.974 129.761l107.537 136.93h-70.974L0 130.478 107.537 0h70.974zm234.842 237.571q0 4.258-1.774 7.363-1.774 3.016-4.879 4.967-3.104 1.952-7.273 2.927-4.08.887-8.693.887h-30.958v-62.979h36.546q3.282 0 5.943 1.42 2.661 1.419 4.524 3.725 1.863 2.218 2.838 5.145 1.065 2.838 1.065 5.854 0 4.435-2.306 8.516-2.218 3.991-6.742 6.031 5.411 1.597 8.516 5.589 3.193 3.903 3.193 10.555zm-17.563-3.548q0-2.306-1.242-3.814-1.242-1.597-3.193-1.597h-14.282v10.556h13.66q2.13 0 3.549-1.33 1.508-1.331 1.508-3.815zm-18.717-28.562v9.669h11.798q1.774 0 3.193-.976 1.508-.976 1.508-3.903 0-2.572-1.242-3.637-1.242-1.153-2.927-1.153h-12.33zm-25.254 33.175v15.08h-44.883v-62.98h44.085v15.08h-26.788v8.87h22.885v14.015h-22.885v9.935h27.586zm-118.563-47.9h15.878l5.5 19.426 5.587-19.426H276.1l-10.378 30.07 4.524 13.129 13.571-43.199h18.805l-24.659 62.98h-14.37l-8.959-22.531-8.87 22.53h-14.37l-24.66-62.979h18.717l13.66 43.199 4.347-13.128-10.201-30.07zm163.175-40.803v15.08h-44.884v-62.98h44.085v15.08h-26.788v8.87h22.885v14.015h-22.885v9.935h27.587zm-55.706-47.9v62.98h-17.297v-24.66h-21.11v24.66H285.02v-62.98h17.297v23.24h21.111v-23.24h17.297zm-61.918 15.08H260.71v47.9h-17.297v-47.9H225.23v-15.08h53.577v15.08zm152.36-55.883v15.08h-44.884V13.33h44.086v15.08H403.58v8.87h22.886v14.016H403.58v9.934h27.587zM322.875 76.31V13.33h24.216q7.805 0 13.748 2.485 5.944 2.483 9.935 6.741 3.992 4.258 6.032 10.023 2.04 5.677 2.04 12.153 0 7.185-2.306 13.039-2.218 5.766-6.387 9.935-4.169 4.08-10.023 6.386-5.855 2.218-13.04 2.218h-24.215zm38.408-31.578q0-3.637-.976-6.653-.975-3.016-2.838-5.145-1.774-2.129-4.435-3.282-2.661-1.242-5.943-1.242h-6.92v32.82h6.92q3.37 0 6.031-1.241 2.661-1.242 4.435-3.46 1.863-2.217 2.75-5.233.976-3.016.976-6.564zm-77.763 32.11q-7.185 0-13.04-2.75-5.854-2.75-10.023-7.185-4.169-4.523-6.475-10.29-2.306-5.765-2.306-11.885 0-6.21 2.394-11.975 2.395-5.766 6.653-10.112 4.347-4.435 10.201-7.008 5.943-2.66 12.95-2.66 7.186 0 13.04 2.749 5.854 2.75 10.023 7.274 4.17 4.523 6.387 10.289 2.306 5.766 2.306 11.797 0 6.21-2.395 11.975-2.395 5.677-6.653 10.112-4.257 4.347-10.2 7.008-5.855 2.661-12.862 2.661zM269.239 44.91q0 3.193.887 6.21.887 2.926 2.66 5.233 1.775 2.306 4.436 3.725 2.75 1.42 6.475 1.42 3.726 0 6.475-1.42 2.75-1.508 4.436-3.814 1.774-2.395 2.572-5.41.887-3.017.887-6.121 0-3.194-.887-6.12-.887-3.017-2.75-5.234-1.774-2.307-4.524-3.637-2.66-1.42-6.298-1.42-3.725 0-6.475 1.42-2.66 1.42-4.435 3.814-1.774 2.306-2.661 5.322-.798 2.927-.798 6.032zm-77.68-.62q0-5.767 2.128-11.355 2.218-5.588 6.387-10.023 4.17-4.435 10.112-7.185 5.943-2.75 13.572-2.75 9.136 0 15.789 3.814 6.741 3.726 10.023 9.935l-13.217 9.403q-.887-2.307-2.394-3.815-1.42-1.508-3.194-2.395t-3.725-1.242q-1.863-.354-3.637-.354-3.726 0-6.475 1.508-2.661 1.419-4.436 3.814-1.685 2.306-2.572 5.322-.798 2.927-.798 5.854 0 3.282.975 6.298.976 3.016 2.839 5.322 1.863 2.307 4.524 3.726 2.75 1.33 6.12 1.33 1.774 0 3.637-.354 1.863-.444 3.548-1.33 1.774-.977 3.105-2.396 1.42-1.508 2.217-3.637l14.104 8.427q-1.42 3.46-4.346 6.21-2.839 2.75-6.564 4.612-3.637 1.863-7.895 2.838-4.169.976-8.16.976-7.008 0-12.862-2.75-5.766-2.838-10.024-7.45-4.169-4.613-6.475-10.468-2.306-5.854-2.306-11.886z" style="line-height:125%;-inkscape-font-specification:Blackout;text-align:start" font-weight="400" font-family="Blackout" letter-spacing="0" word-spacing="0" fill="#444"/></svg>