<svg version="1" xmlns="http://www.w3.org/2000/svg" width="2222.667" height="2222.667" viewBox="0 0 1667.000000 1667.000000"><path d="M329.2 510.7c-5.2 6.2-14.9 17.9-18.9 22.9-1.7 2.1-14.5 17.6-28.3 34.4-26.1 31.7-38.3 46.4-58.5 71-6.6 8-12.7 15.4-13.6 16.5-3.4 4-27.5 33.3-30.9 37.5-1.9 2.4-5.8 7.1-8.6 10.5-2.9 3.3-7.4 8.8-10 12.1-4.2 5.1-71.7 87.1-76.6 92.9-.9 1.1-4.6 5.6-8.2 9.9l-6.6 8 2.8 3.5c1.4 2 6.3 8.1 10.7 13.7 4.4 5.5 14.3 18.1 22 27.9 12.6 15.9 33.7 42.7 36.8 46.5.7.8 8.8 11.2 18.1 23s17.3 21.9 17.8 22.5c.5.5 12.6 15.8 26.9 34 14.3 18.1 27 34.3 28.3 36 1.4 1.6 7.9 10 14.6 18.5 6.7 8.5 12.9 16.4 13.8 17.5 1 1.1 4 4.9 6.7 8.5 2.8 3.6 5.2 6.7 5.5 7 .3.3 5.7 7 12 15s11.8 14.9 12.2 15.5c.5.5 7.4 9.3 15.4 19.5s16 20.2 17.7 22.3l3.2 3.7 86.7-.2 86.7-.3-8.4-10.8c-4.6-5.9-9.5-12.2-11-14-3.8-4.8-3.7-4.7-9.1-11.7-2.7-3.6-5.3-7-5.9-7.6-1.2-1.3-2.3-2.7-22.5-28.4-8.8-11.3-21.3-27.2-27.8-35.4-6.4-8.2-15.4-19.7-20-25.5-4.5-5.8-10-12.9-12.2-15.6-2.2-2.8-17.8-22.6-34.6-44-16.8-21.5-31.8-40.6-33.4-42.5-1.5-1.9-10.7-13.6-20.4-26s-18.4-23.5-19.4-24.7c-.9-1.2-6.9-8.8-13.2-16.8-6.3-8.1-14.7-18.8-18.7-23.7l-7.1-9.1 10-12.1c5.5-6.6 11-13.2 12.2-14.6 1.1-1.4 5-6.1 8.6-10.5 3.6-4.4 7-8.5 7.6-9 .6-.6 3-3.5 5.5-6.5 2.4-3 5.2-6.4 6.1-7.5.9-1.1 6.5-7.9 12.4-15 5.9-7.2 11-13.2 11.3-13.5.4-.3 2.2-2.4 4-4.8 2.8-3.7 21.2-25.9 26.9-32.7 1.9-2.2 16-19.2 17.9-21.5 7-8.6 24.5-29.6 28.1-33.8 2.5-2.9 5.4-6.5 6.6-8 1.1-1.5 2.5-3.2 3.1-3.8.5-.6 4.8-5.8 9.5-11.5s16.6-20.1 26.5-32c9.9-11.9 19.6-23.6 21.5-25.9 4.5-5.6 14.3-17.3 15-18 .3-.3 3.4-4.1 7-8.5 3.5-4.4 6.7-8.2 7-8.5.5-.5 13.6-16.3 15.9-19.3 1.3-1.6-2.9-1.7-85.7-1.7h-87l-4 4.7zM1162.6 509.7c2.3 3.1 8.9 11.6 16.7 21.3.7.8 16.7 21.3 35.7 45.5 18.9 24.2 34.7 44.2 35 44.5.3.3 1.9 2.3 3.5 4.4 1.7 2.2 4.8 6.3 7 9.1 4.5 5.8 54.3 69.1 56.2 71.5.7.8 5.1 6.4 9.8 12.5 4.8 6 9.4 11.9 10.3 13 .9 1.2 3.9 5 6.7 8.5 2.7 3.6 5.5 7.2 6.2 8 .7.8 4.9 6.3 9.5 12.1s9.5 12.1 11 14c1.5 1.9 7.3 9.2 12.8 16.4 5.6 7.1 10.9 13.9 11.8 15 .9 1.1 5.7 7.2 10.7 13.5 4.9 6.3 9.2 11.7 9.5 12 1.3 1.2 8 10.6 8.1 11.3.1.7-11.5 15.2-14.1 17.7-.3.3-3.4 4.1-7 8.5-3.5 4.4-6.7 8.2-7 8.5-.3.3-3.5 4.1-7 8.5-3.6 4.4-7 8.5-7.6 9.2-.6.6-4.9 5.7-9.5 11.4-8.1 9.8-18.8 22.6-23.3 27.9-1.1 1.4-3.9 4.8-6.2 7.5-4.2 5.2-32 38.8-47.9 58-5 6-16 19.3-24.4 29.5-8.4 10.2-16.3 19.6-17.5 21-2 2.4-15.9 19.1-19.5 23.5-4.4 5.5-25.9 31.3-27.8 33.5-1.2 1.4-11.6 14-23.2 28l-21 25.5 86.7.3 86.7.2 2.5-2.8c1.4-1.5 4.3-5 6.5-7.7s5.2-6.2 6.6-7.9c5.2-6.2 7.1-8.5 24-29.1 9.4-11.6 18.3-22.4 19.8-24 1.4-1.7 4.2-5.1 6.1-7.5 1.9-2.4 4.9-6 6.6-8 1.7-1.9 12.5-15 24-29s21.7-26.4 22.6-27.5c.9-1.1 8.5-10.3 16.9-20.5 8.3-10.2 16.4-20 18-21.9 1.6-1.9 4.4-5.3 6.2-7.5 1.7-2.2 7.7-9.4 13.2-16 5.5-6.7 14.1-17.1 19-23.1 4.9-6.1 9.2-11.2 9.5-11.5.3-.3 4.6-5.5 9.5-11.5 4.9-6.1 9.2-11.2 9.5-11.5.3-.3 4-4.8 8.2-10 4.2-5.2 8.5-10.4 9.5-11.5 1-1.1 3.6-4.3 5.8-7 2.1-2.8 4.2-5.2 4.5-5.5.3-.3 2.4-2.7 4.5-5.5 2.2-2.7 4.8-5.9 5.8-7 1-1.1 2.7-3.2 3.7-4.6l1.9-2.6-10.7-13.5c-14.8-18.6-14.8-18.6-26.7-33.8-5.8-7.4-11.1-14.2-11.8-15-.7-.8-2.8-3.5-4.7-6-1.9-2.5-3.7-4.7-4-5-.3-.3-3-3.7-6-7.5-3-3.9-10.4-13.3-16.5-21-6.1-7.7-16.8-21.2-23.7-30-31.5-40-56.3-71.3-58.5-74-1.3-1.7-3.2-4-4.1-5.2-2.3-3.1-5-6.4-7.1-8.9-1-1.1-3.6-4.5-5.8-7.5-4.7-6.1-43.2-55-46.6-59-1.2-1.4-5.8-7.2-10.2-12.9-4.4-5.6-12.4-15.8-17.8-22.6l-9.9-12.4h-174l2.8 3.7zM1445.4 888c-.3 13.7.1 12.5-4.8 12.6-17.1.5-20.8 21.3-5.4 31 9.4 6 19.1 3.6 24-6 1.8-3.5 2.7-10 1.6-11.2-.3-.2-1.9 1.6-3.8 4.1l-3.3 4.4-4.1-3.2c-7.6-5.9-7.6-5 .8-14.7 1.7-2 4.8-5.6 7-8.2l3.8-4.7 11.6 9.7c16.5 13.7 16.2 13.5 16.2 14.5 0 .4-2.1 3.2-4.7 6.2-4.5 5.1-4.8 5.2-7 3.8-2.1-1.4-2.3-1.4-2.3.4 0 4.9-3.5 12-8.4 16.8-7.4 7.4-13.2 9.8-23.1 9.9-7 0-8.8-.4-14.6-3.3-13.9-6.7-21.2-17.8-21.2-32.1 0-10.7 2.8-17.5 10.7-25.5 5.1-5.2 7.2-6.6 12.6-8.4 3.6-1.1 8.3-1.9 10.5-1.8l4 .2-.1 5.5zm-35.2 55.8c29.8 14.7 24 59.1-8.7 66-21 4.4-41.1-11.6-42.4-33.6-.4-8.4 5.1-21.6 11.1-26.6 1.3-1 3-2.5 4-3.3.9-.8 4.3-2.5 7.5-3.8 8.8-3.6 19.5-3.1 28.5 1.3zm-80.8 66.4c2.8 2.4 5.3 4.5 5.6 4.8.3.3 6.1 5.2 13 10.9 6.9 5.8 13 11 13.6 11.8 2.2 2.5 2.3 2.5 11.4-8.7 2.4-3 5.7-6.8 7.2-8.4 1.5-1.7 2.8-3.4 2.8-3.9 0-.4.7-.7 1.5-.5 1.8.4 12.5 9.1 12.2 10-.1.4-6.5 8.2-14.2 17.4-7.7 9.1-14.9 17.7-16 19.1-1.9 2.3-2.1 2.4-4 .6-3-2.6-12.7-10.8-23.5-19.8-5.2-4.4-10-8.4-10.6-9-.6-.5-3.3-2.8-5.9-5-10.9-8.9-11-9.1-9.2-11.7.9-1.3 3.2-4.1 5.1-6.3 2-2.2 3.6-4.3 3.6-4.7 0-1.8 2.5-.6 7.4 3.4zm-13.4 29.2c4.8 3.1 7.9 9.1 8 14.9 0 3.6.1 3.7 2.3 2.5 7.4-4 19 .1 23.3 8.4 3.3 6.4.4 17.6-6.6 25.5-1.4 1.5-6.7 7.9-11.8 14.1-5.2 6.1-9.7 11.2-10.2 11.2-.7 0-6.3-4.2-8-6-.3-.3-7.2-6.1-15.5-13-8.2-6.8-15.8-13.1-16.7-14-.9-.8-4.1-3.5-7.2-6-3-2.5-5.5-4.7-5.5-5-.1-.4 6.6-8.5 18.9-23 2.1-2.5 4.9-5.8 6.1-7.4 4.9-6.3 15.3-7.3 22.9-2.2z"/><path d="M1385.3 959.7c-12.4 6.8-10.4 23.5 3.5 30.4 8.7 4.3 15.1 2.9 20.8-4.6 9.8-12.8-9.9-33.6-24.3-25.8zM1300.7 1058.3c-4.8 5.1-7.7 8.6-7.7 9.5 0 1 8 7.5 8 6.5 0-.4 1.5-2.4 3.3-4.3 5.7-6 6.7-8 5.5-10.5-.6-1.3-2.1-2.8-3.5-3.4-2.2-1-2.8-.8-5.6 2.2zM1324.8 1070.7c-1 .3-4.2 3.4-7.2 7l-5.5 6.6 4.1 3.3c2.2 1.9 4.4 3.4 4.8 3.4 1.7 0 11-12.2 11-14.4 0-3.3-4-6.6-7.2-5.9zM598.6 540.2c-23.5 5.5-44.6 23.6-53.6 46.2-3.9 9.7-5.2 16-5.4 26.5-.1 11.1.8 17.3 4.1 27.3 6.9 20.8 22.2 38.2 42.2 47.8 21.1 10.2 52.2 8.2 74.6-4.9 7.4-4.3 19-15.6 21.1-20.6.8-2.1 1.4-3.8 1.2-4-.2-.1-7.9-4.8-17.2-10.3l-16.9-10.1-1.9 3.8c-2.5 5.1-6.8 8.8-14.2 12.1-5.4 2.5-7.1 2.8-15.1 2.6-10.7-.2-16.2-2.4-23-9.2-4.2-4.3-8.9-12.4-10.1-17.4-1.5-6.5-1.9-9.9-1.8-14 .4-19.5 9.6-34 24.5-38.9 3.3-1.1 13.3-1.5 18.4-.8 9.3 1.4 18 7.3 22.3 15.3l1.7 3.2 15.7-11.2c8.7-6.1 15.8-11.7 15.8-12.4 0-1.7-3.5-6.6-8.5-12-8.5-9.3-23-16.9-37-19.6-10.7-2-27-1.7-36.9.6zM753 539c-2.5.4-5.7 1.1-7.3 1.3-4.5.9-17.9 7-23.7 10.9-14.1 9.4-25 23.4-30.7 39.2-8.8 24.3-3.6 53.8 13.1 75.1 9.9 12.7 26.6 23.4 42.4 27.1 56.7 13.5 108.8-38.3 94.7-94.1-9.1-36.2-38.7-60.1-74.6-60.3-5.2 0-11.4.3-13.9.8zm23.4 38.6c5.3 1.7 12 5.8 14.9 9.4 1 1.2 3.1 4.7 4.7 7.8 8.6 17.1 5.1 41.7-7.8 53.8-6.4 6-11.5 7.8-22.2 7.9-8.2 0-10.3-.4-15.1-2.6-12.6-5.9-19.7-18.1-20.5-35-.8-18.4 6.3-33.2 19.1-39.4 3-1.5 7.2-2.9 9.2-3.2 2.1-.3 3.9-.6 4.1-.8.6-.6 9.1.7 13.6 2.1zM868.8 538.8c-6.2.3-6.8.5-6.9 2.5-.4 10.9-.1 150.6.4 151.3.6 1.1 65.8 1 72.7 0 30.5-4.7 51.3-22.1 60.6-50.6 2.5-7.7 2.7-9.9 2.8-24 .1-8.5-.2-16.9-.6-18.5-.4-1.7-.9-4.1-1.2-5.4-1.8-8.2-7.9-21.2-12.9-27.5-11.6-14.6-27.6-23.6-47.2-26.5-7.4-1.1-52.5-2-67.7-1.3zm63.2 38.7c15.1 5.1 23.8 19 23.8 38.2 0 19.4-8.3 33.6-22.9 38.9-2.9 1-8.4 1.6-16.5 1.8l-12.1.2v-80.1l3.6-.5c6.3-.9 19.4 0 24.1 1.5zM1027.5 539l-10 .5.1 76.5c.1 42.1.2 76.7.3 77 .1.4 102.7.5 108.2.1 1.4-.1 1.6-2.2 1.5-18.4l-.1-18.2H1060V632h19.3c10.5.1 23.3.1 28.2.1l9-.1-.2-16.1c-.1-8.9-.4-16.7-.6-17.3-.3-.8-8.6-1.1-28.1-1.1l-27.6.1v-10.8c0-9.6.2-10.8 1.8-10.8.9 0 15.7-.1 32.7-.3l31-.2.1-18.3.1-18.2h-8.1c-4.5 0-24.3-.2-44.1-.3-19.8-.1-40.5 0-46 .3zM622.2 775l.3 18.5h21.7c13.8 0 21.9.4 22 1 0 .5.2 26 .4 56.5.1 30.5.2 56.6.3 58l.1 2.5 16.8-.2c9.2-.1 18.6-.2 21-.2l4.2-.1V793.5h44.5v-18.3c0-11.5-.3-18.2-1-18.3-.5-.1-30.1-.2-65.8-.3l-64.7-.1.2 18.5zM769.9 757.1c-.9.5-1.3 152.8-.4 153.7.7.7 40.4.6 41.1-.1.4-.3.7-13.9.7-30.2V851l3.1-.1c3-.1 40.2-.1 45.9 0l2.7.1v60l3.3.1c4 .1 23.9.1 32.7 0l6.5-.1v-77c0-76.6 0-77-2-77.1-6.2-.4-38.2-.4-39.2-.1-1 .3-1.3 6.9-1.3 28.6v28.2h-51.8v-25.1c0-13.7-.1-26.6-.1-28.5l-.1-3.5h-20.1c-11 0-20.5.3-21 .6zM932.1 833.7l.1 77.3h2.1c3.6.1 101.9.1 105.2.1l3-.1v-18.3l-.1-18.2-21.4-.2c-11.8-.1-27.1-.2-34-.2l-12.5-.1.1-11.7v-11.8l28.2-.3 28.2-.2-.2-17.3-.3-17.2-27-.1c-14.8-.1-27.4-.2-28-.3-1.1-.1-1.3-19.6-.2-20.8.4-.4 15.2-.7 32.9-.7l32.2-.1.1-17.8c0-11-.4-18.1-1-18.5-.5-.3-24.9-.6-54.2-.7h-53.2v77.2zM577 974.9c0 .6 10.9 28.6 24.5 63.1 1.9 4.7 8 20.2 13.5 34.5 5.6 14.3 12.9 32.9 16.2 41.2l6 15.3h35.3l10.5-27c5.8-14.8 10.8-27 11.1-27 .3 0 3.8 8.2 7.8 18.2 4 10.1 8.8 22.2 10.8 27l3.6 8.8h17.8c17.6 0 17.8 0 18.5-2.3.6-2.2 7.2-19.1 20-51.4 3.5-8.9 6.4-16.5 6.4-16.8 0-.3.8-2.5 1.9-4.8 1-2.3 5.3-13.2 9.5-24.2 4.3-11 8.2-20.9 8.6-22 .5-1.1 1.9-4.5 3-7.5s2.4-6.4 2.9-7.5c3.5-8.1 6.9-17.1 6.6-17.6-.7-1-45.8-.4-46.1.6-.4 1.4-10 32.2-13.9 44.5-1.8 5.8-5.6 17.9-8.5 27-2.9 9.1-6.4 20.3-7.9 24.9l-2.7 8.3-4.8-13.8c-2.7-7.7-5.1-15.1-5.3-16.5-.3-1.5.6-6 2-10 1.4-4.1 6.2-18 10.7-30.9 11.7-33.6 11.8-34 11.1-34.1-3.3-.8-37.4-.3-38 .6-.5.5-3.7 11-7.2 23.2-3.4 12.2-6.6 22-7 21.8-.4-.3-.9-1.7-1.2-3.2-.2-1.6-2.1-8.4-4.2-15.3-2-6.9-4-14.1-4.5-16-.4-1.9-1.4-5.3-2.1-7.5l-1.4-4h-19.3c-10.5-.1-19.2.1-19.2.3 0 .2 4.5 13.7 10 30 5.6 16.3 11.1 32.8 12.4 36.6l2.3 6.9-5.1 15.3c-2.8 8.5-5.3 15.4-5.6 15.4-.3 0-3.1-8.2-6.2-18.3-3.1-10-10.3-32.6-15.9-50.2-5.5-17.6-10.4-32.8-10.6-33.8-.3-.9-1-1.8-1.7-1.9-3-.4-44.6-.3-44.6.1zM823.2 975c-.5.4-.8 148.9-.3 153.2.1.5 24.9.8 55.1.8h55v-37h-68.1l.3-12.2.3-12.2H921l.1-3.8v-13.3-13.6l-.1-4-9.2.1c-5.1.1-17.7.1-28 .1l-18.8-.1v-21.5h65.5v-37h-53.3c-29.3-.1-53.6.2-54 .5zM952.9 974.5c-.1 0-.2 34.8-.3 77.3l-.2 77.3 43.7-.1c38.7-.1 44.6-.4 52.2-2 19.5-4.3 31.3-14.1 34.6-28.9 2.6-11.8-1-28.7-7.7-35.6-2.8-2.9-9.1-8.5-9.5-8.5-.3 0-2.5-.9-5.1-2.1l-4.7-2 4.8-3.3c17.9-12.2 21.8-39.8 8.3-57.7-4.5-6-11.8-11.5-17.4-13.1-2.9-.8-18.6-1.2-51.3-1.3-26 0-47.4-.1-47.4 0zm76.8 37.4c3.5 1.4 5.3 4.8 5.5 10.1.2 5.1-.9 7.7-4.3 10.1-2.8 1.9-4.4 2.1-19.5 2.3l-16.4.1v-24.1l15.8.1c10.4.1 16.9.5 18.9 1.4zm5.6 57.4c5.4 3.5 7 13.3 3.1 19.2-2.7 4.1-6.4 4.8-25.2 4.8l-17.7.1-.3-13-.3-13h18.9c16.2.1 19.2.3 21.5 1.9z"/></svg>